<mxfile host="app.diagrams.net" modified="2023-01-31T20:48:22.656Z" agent="5.0 (Windows NT 10.0; Win64; x64) AppleWebKit/537.36 (KHTML, like Gecko) Chrome/109.0.0.0 Safari/537.36" version="20.8.11" etag="YhoaKBMCmWwSoaWN36uk" type="github">
  <diagram id="iVqs05ysCgDMvs5f8VoH" name="Page-1">
    <mxGraphModel dx="1434" dy="834" grid="1" gridSize="10" guides="1" tooltips="1" connect="1" arrows="1" fold="1" page="1" pageScale="1" pageWidth="1600" pageHeight="1200" background="none" math="0" shadow="0">
      <root>
        <mxCell id="0" />
        <mxCell id="1" parent="0" />
        <mxCell id="8" value="Autodesk" style="swimlane;whiteSpace=wrap;html=1;startSize=23;rounded=0;" parent="1" vertex="1">
          <mxGeometry x="520" y="270" width="250" height="280" as="geometry" />
        </mxCell>
        <mxCell id="2" value="Fusion Team" style="ellipse;shape=cloud;whiteSpace=wrap;html=1;align=center;rounded=0;" parent="8" vertex="1">
          <mxGeometry x="30" y="40" width="150" height="90" as="geometry" />
        </mxCell>
        <mxCell id="10" style="edgeStyle=none;html=1;exitX=0.5;exitY=0;exitDx=0;exitDy=0;entryX=0.55;entryY=0.95;entryDx=0;entryDy=0;entryPerimeter=0;jumpStyle=none;rounded=0;" parent="8" source="9" target="2" edge="1">
          <mxGeometry relative="1" as="geometry" />
        </mxCell>
        <mxCell id="9" value="Fusion 360" style="rounded=0;whiteSpace=wrap;html=1;" parent="8" vertex="1">
          <mxGeometry x="50" y="180" width="120" height="60" as="geometry" />
        </mxCell>
        <mxCell id="11" value="Altium 365" style="rounded=0;whiteSpace=wrap;html=1;" parent="1" vertex="1">
          <mxGeometry x="840" y="480" width="120" height="60" as="geometry" />
        </mxCell>
        <mxCell id="12" value="Debris Assessment Software (DAS)" style="rounded=0;whiteSpace=wrap;html=1;" parent="1" vertex="1">
          <mxGeometry x="750" y="750" width="120" height="60" as="geometry" />
        </mxCell>
        <mxCell id="13" value="System Tool Kit (STK)" style="rounded=0;whiteSpace=wrap;html=1;" parent="1" vertex="1">
          <mxGeometry x="950" y="570" width="120" height="60" as="geometry" />
        </mxCell>
        <mxCell id="14" value="SOLIDWORKS" style="rounded=0;whiteSpace=wrap;html=1;" parent="1" vertex="1">
          <mxGeometry x="820" y="660" width="120" height="60" as="geometry" />
        </mxCell>
        <mxCell id="15" value="NX" style="rounded=0;whiteSpace=wrap;html=1;" parent="1" vertex="1">
          <mxGeometry x="1030" y="730" width="120" height="60" as="geometry" />
        </mxCell>
        <mxCell id="16" value="MATLAB" style="rounded=0;whiteSpace=wrap;html=1;" parent="1" vertex="1">
          <mxGeometry x="700" y="870" width="120" height="60" as="geometry" />
        </mxCell>
        <mxCell id="17" value="GitHub" style="rounded=0;whiteSpace=wrap;html=1;" parent="1" vertex="1">
          <mxGeometry x="470" y="590" width="120" height="60" as="geometry" />
        </mxCell>
        <mxCell id="18" value="Google Drive" style="rounded=0;whiteSpace=wrap;html=1;" parent="1" vertex="1">
          <mxGeometry x="390" y="700" width="120" height="60" as="geometry" />
        </mxCell>
        <mxCell id="19" value="Notion" style="rounded=0;whiteSpace=wrap;html=1;" parent="1" vertex="1">
          <mxGeometry x="625" y="770" width="120" height="60" as="geometry" />
        </mxCell>
        <mxCell id="20" value="Notion" style="rounded=0;whiteSpace=wrap;html=1;" parent="1" vertex="1">
          <mxGeometry x="890" y="800" width="120" height="60" as="geometry" />
        </mxCell>
        <mxCell id="22" value="CODE V" style="rounded=0;whiteSpace=wrap;html=1;" parent="1" vertex="1">
          <mxGeometry x="870" y="290" width="120" height="60" as="geometry" />
        </mxCell>
        <mxCell id="23" value="SigFit" style="rounded=0;whiteSpace=wrap;html=1;" parent="1" vertex="1">
          <mxGeometry x="910" y="350" width="120" height="60" as="geometry" />
        </mxCell>
        <mxCell id="24" value="Zemax" style="rounded=0;whiteSpace=wrap;html=1;" parent="1" vertex="1">
          <mxGeometry x="1020" y="440" width="120" height="60" as="geometry" />
        </mxCell>
      </root>
    </mxGraphModel>
  </diagram>
</mxfile>
